<mxfile host="app.diagrams.net" modified="2021-12-14T05:54:11.349Z" agent="5.0 (Windows NT 10.0; Win64; x64) AppleWebKit/537.36 (KHTML, like Gecko) Chrome/94.0.4606.61 Safari/537.36" etag="VMsictv-74fIrxNLWnrh" version="15.8.7" type="github">
  <diagram name="Page-1" id="c7558073-3199-34d8-9f00-42111426c3f3">
    <mxGraphModel dx="1420" dy="1971" grid="1" gridSize="10" guides="1" tooltips="1" connect="1" arrows="1" fold="1" page="1" pageScale="1" pageWidth="826" pageHeight="1169" background="none" math="0" shadow="0">
      <root>
        <mxCell id="0" />
        <mxCell id="1" parent="0" />
        <mxCell id="117tsulJ_mS-vrgYPwUj-100" style="edgeStyle=orthogonalEdgeStyle;rounded=1;orthogonalLoop=1;jettySize=auto;html=1;exitX=0.5;exitY=1;exitDx=0;exitDy=0;entryX=0.5;entryY=0;entryDx=0;entryDy=0;strokeWidth=2;fillColor=#a20025;strokeColor=#6F0000;" parent="1" source="2" target="4" edge="1">
          <mxGeometry relative="1" as="geometry" />
        </mxCell>
        <mxCell id="2" value="&lt;p style=&quot;margin: 0px ; margin-top: 4px ; text-align: center ; text-decoration: underline&quot;&gt;&lt;strong&gt;信息池&lt;/strong&gt;&lt;/p&gt;&lt;hr&gt;&lt;p style=&quot;margin: 0px ; margin-left: 8px&quot;&gt;存储信息流&lt;/p&gt;" style="verticalAlign=middle;align=center;overflow=fill;fontSize=12;fontFamily=Helvetica;html=1;rounded=1;fontStyle=1;strokeWidth=3;fillColor=#E6FFCC" parent="1" vertex="1">
          <mxGeometry x="241" y="90" width="110" height="69" as="geometry" />
        </mxCell>
        <mxCell id="3" value="输入处理" style="whiteSpace=wrap;align=center;verticalAlign=middle;fontStyle=1;strokeWidth=3;fillColor=#FFFFCC" parent="1" vertex="1">
          <mxGeometry x="251" y="-10" width="90" height="60" as="geometry" />
        </mxCell>
        <mxCell id="117tsulJ_mS-vrgYPwUj-112" style="edgeStyle=orthogonalEdgeStyle;rounded=1;orthogonalLoop=1;jettySize=auto;html=1;exitX=0.5;exitY=1;exitDx=0;exitDy=0;entryX=0.5;entryY=0;entryDx=0;entryDy=0;fontSize=21;strokeWidth=2;fillColor=#a20025;strokeColor=#6F0000;" parent="1" source="4" target="117tsulJ_mS-vrgYPwUj-111" edge="1">
          <mxGeometry relative="1" as="geometry" />
        </mxCell>
        <mxCell id="117tsulJ_mS-vrgYPwUj-114" style="edgeStyle=orthogonalEdgeStyle;rounded=1;orthogonalLoop=1;jettySize=auto;html=1;exitX=0.5;exitY=1;exitDx=0;exitDy=0;entryX=0.589;entryY=-0.017;entryDx=0;entryDy=0;entryPerimeter=0;fontSize=21;strokeWidth=2;fillColor=#a20025;strokeColor=#6F0000;" parent="1" source="4" target="117tsulJ_mS-vrgYPwUj-113" edge="1">
          <mxGeometry relative="1" as="geometry" />
        </mxCell>
        <mxCell id="4" value="处理信息" style="whiteSpace=wrap;align=center;verticalAlign=middle;fontStyle=1;strokeWidth=3;fillColor=#FFFFCC" parent="1" vertex="1">
          <mxGeometry x="251" y="191" width="90" height="60" as="geometry" />
        </mxCell>
        <mxCell id="36" value="" style="edgeStyle=none;noEdgeStyle=1;strokeColor=#990000;strokeWidth=2" parent="1" source="3" target="2" edge="1">
          <mxGeometry width="100" height="100" relative="1" as="geometry">
            <mxPoint x="20" y="250" as="sourcePoint" />
            <mxPoint x="120" y="150" as="targetPoint" />
          </mxGeometry>
        </mxCell>
        <mxCell id="117tsulJ_mS-vrgYPwUj-98" style="edgeStyle=orthogonalEdgeStyle;rounded=1;orthogonalLoop=1;jettySize=auto;html=1;entryX=0.5;entryY=0;entryDx=0;entryDy=0;fillColor=#a20025;strokeColor=#6F0000;strokeWidth=2;" parent="1" source="117tsulJ_mS-vrgYPwUj-96" target="117tsulJ_mS-vrgYPwUj-97" edge="1">
          <mxGeometry relative="1" as="geometry" />
        </mxCell>
        <mxCell id="117tsulJ_mS-vrgYPwUj-96" value="开始" style="rounded=1;whiteSpace=wrap;html=1;fillColor=#dae8fc;strokeColor=#6c8ebf;arcSize=32;" parent="1" vertex="1">
          <mxGeometry x="254" y="-200" width="84" height="40" as="geometry" />
        </mxCell>
        <mxCell id="117tsulJ_mS-vrgYPwUj-99" style="edgeStyle=orthogonalEdgeStyle;rounded=1;orthogonalLoop=1;jettySize=auto;html=1;exitX=0.5;exitY=1;exitDx=0;exitDy=0;entryX=0.5;entryY=0;entryDx=0;entryDy=0;strokeWidth=2;fillColor=#a20025;strokeColor=#6F0000;" parent="1" source="117tsulJ_mS-vrgYPwUj-97" target="3" edge="1">
          <mxGeometry relative="1" as="geometry" />
        </mxCell>
        <mxCell id="117tsulJ_mS-vrgYPwUj-97" value="运行第一次循环相关程序" style="whiteSpace=wrap;align=center;verticalAlign=middle;fontStyle=1;strokeWidth=3;fillColor=#FFFFCC" parent="1" vertex="1">
          <mxGeometry x="251" y="-110" width="90" height="60" as="geometry" />
        </mxCell>
        <mxCell id="117tsulJ_mS-vrgYPwUj-102" style="edgeStyle=orthogonalEdgeStyle;orthogonalLoop=1;jettySize=auto;html=1;entryX=1;entryY=0.5;entryDx=0;entryDy=0;fontSize=21;strokeWidth=2;curved=1;exitX=0;exitY=0.375;exitDx=0;exitDy=0;exitPerimeter=0;" parent="1" source="117tsulJ_mS-vrgYPwUj-101" target="3" edge="1">
          <mxGeometry relative="1" as="geometry">
            <mxPoint x="517" y="20" as="sourcePoint" />
            <Array as="points" />
          </mxGeometry>
        </mxCell>
        <mxCell id="117tsulJ_mS-vrgYPwUj-106" style="edgeStyle=orthogonalEdgeStyle;rounded=1;orthogonalLoop=1;jettySize=auto;html=1;exitX=0.011;exitY=0.22;exitDx=0;exitDy=0;entryX=1;entryY=0.5;entryDx=0;entryDy=0;fontSize=21;strokeWidth=2;exitPerimeter=0;" parent="1" source="117tsulJ_mS-vrgYPwUj-101" target="117tsulJ_mS-vrgYPwUj-97" edge="1">
          <mxGeometry relative="1" as="geometry">
            <Array as="points" />
          </mxGeometry>
        </mxCell>
        <mxCell id="117tsulJ_mS-vrgYPwUj-107" style="edgeStyle=orthogonalEdgeStyle;rounded=1;orthogonalLoop=1;jettySize=auto;html=1;entryX=1;entryY=0.5;entryDx=0;entryDy=0;fontSize=21;strokeWidth=2;" parent="1" target="2" edge="1">
          <mxGeometry relative="1" as="geometry">
            <mxPoint x="519" y="125" as="sourcePoint" />
            <Array as="points">
              <mxPoint x="519" y="125" />
              <mxPoint x="436" y="125" />
            </Array>
          </mxGeometry>
        </mxCell>
        <mxCell id="117tsulJ_mS-vrgYPwUj-108" style="edgeStyle=orthogonalEdgeStyle;rounded=1;orthogonalLoop=1;jettySize=auto;html=1;exitX=0.022;exitY=0.688;exitDx=0;exitDy=0;entryX=1;entryY=0.5;entryDx=0;entryDy=0;fontSize=21;strokeWidth=2;exitPerimeter=0;" parent="1" source="117tsulJ_mS-vrgYPwUj-101" target="4" edge="1">
          <mxGeometry relative="1" as="geometry">
            <Array as="points">
              <mxPoint x="522" y="221" />
            </Array>
          </mxGeometry>
        </mxCell>
        <mxCell id="117tsulJ_mS-vrgYPwUj-101" value="&lt;b style=&quot;font-size: 21px&quot;&gt;配&lt;br&gt;&lt;br&gt;置&lt;br&gt;&lt;br&gt;中&lt;br&gt;&lt;br&gt;心&lt;/b&gt;" style="rounded=0;whiteSpace=wrap;html=1;fillColor=#1ba1e2;fontColor=#ffffff;strokeColor=#006EAF;gradientColor=#ffffff;glass=0;shadow=0;sketch=0;container=0;" parent="1" vertex="1">
          <mxGeometry x="520" y="-220" width="90" height="640" as="geometry" />
        </mxCell>
        <mxCell id="117tsulJ_mS-vrgYPwUj-122" style="edgeStyle=orthogonalEdgeStyle;rounded=1;orthogonalLoop=1;jettySize=auto;html=1;exitX=0.5;exitY=1;exitDx=0;exitDy=0;entryX=0.5;entryY=0;entryDx=0;entryDy=0;fontSize=21;startArrow=none;startFill=0;endArrow=classic;endFill=1;strokeWidth=2;fillColor=#a20025;strokeColor=#6F0000;" parent="1" source="117tsulJ_mS-vrgYPwUj-111" target="117tsulJ_mS-vrgYPwUj-119" edge="1">
          <mxGeometry relative="1" as="geometry" />
        </mxCell>
        <mxCell id="117tsulJ_mS-vrgYPwUj-111" value="剔除模块" style="whiteSpace=wrap;align=center;verticalAlign=middle;fontStyle=1;strokeWidth=3;fillColor=#FFFFCC" parent="1" vertex="1">
          <mxGeometry x="200" y="300" width="90" height="60" as="geometry" />
        </mxCell>
        <mxCell id="117tsulJ_mS-vrgYPwUj-123" style="edgeStyle=orthogonalEdgeStyle;rounded=1;orthogonalLoop=1;jettySize=auto;html=1;exitX=0.5;exitY=1;exitDx=0;exitDy=0;entryX=0.5;entryY=0;entryDx=0;entryDy=0;fontSize=21;startArrow=none;startFill=0;endArrow=classic;endFill=1;strokeWidth=2;fillColor=#a20025;strokeColor=#6F0000;" parent="1" source="117tsulJ_mS-vrgYPwUj-113" target="117tsulJ_mS-vrgYPwUj-119" edge="1">
          <mxGeometry relative="1" as="geometry" />
        </mxCell>
        <mxCell id="117tsulJ_mS-vrgYPwUj-113" value="异常处理" style="whiteSpace=wrap;align=center;verticalAlign=middle;fontStyle=1;strokeWidth=3;fillColor=#d80073;fontColor=#ffffff;strokeColor=#A50040;" parent="1" vertex="1">
          <mxGeometry x="300" y="300" width="90" height="60" as="geometry" />
        </mxCell>
        <mxCell id="117tsulJ_mS-vrgYPwUj-116" value="" style="endArrow=none;startArrow=classic;html=1;rounded=1;fontSize=21;strokeWidth=2;exitX=1;exitY=0.5;exitDx=0;exitDy=0;startFill=1;endFill=0;" parent="1" source="117tsulJ_mS-vrgYPwUj-113" edge="1">
          <mxGeometry width="50" height="50" relative="1" as="geometry">
            <mxPoint x="413" y="420" as="sourcePoint" />
            <mxPoint x="520" y="330" as="targetPoint" />
          </mxGeometry>
        </mxCell>
        <mxCell id="117tsulJ_mS-vrgYPwUj-117" style="edgeStyle=none;curved=1;orthogonalLoop=1;jettySize=auto;html=1;exitX=0;exitY=0.5;exitDx=0;exitDy=0;fontSize=21;startArrow=classic;startFill=1;endArrow=none;endFill=0;strokeWidth=2;" parent="1" source="117tsulJ_mS-vrgYPwUj-96" target="117tsulJ_mS-vrgYPwUj-96" edge="1">
          <mxGeometry relative="1" as="geometry" />
        </mxCell>
        <mxCell id="117tsulJ_mS-vrgYPwUj-118" style="edgeStyle=none;curved=1;orthogonalLoop=1;jettySize=auto;html=1;exitX=1;exitY=0;exitDx=0;exitDy=0;fontSize=21;startArrow=classic;startFill=1;endArrow=none;endFill=0;strokeWidth=2;" parent="1" source="117tsulJ_mS-vrgYPwUj-96" target="117tsulJ_mS-vrgYPwUj-96" edge="1">
          <mxGeometry relative="1" as="geometry" />
        </mxCell>
        <mxCell id="117tsulJ_mS-vrgYPwUj-119" value="结束" style="rounded=1;whiteSpace=wrap;html=1;fillColor=#dae8fc;strokeColor=#6c8ebf;arcSize=32;" parent="1" vertex="1">
          <mxGeometry x="257" y="440" width="84" height="40" as="geometry" />
        </mxCell>
        <mxCell id="yOba8j6tgRHBuVcscgmp-57" style="edgeStyle=orthogonalEdgeStyle;rounded=0;orthogonalLoop=1;jettySize=auto;html=1;entryX=0.5;entryY=1;entryDx=0;entryDy=0;startArrow=classic;startFill=1;" edge="1" parent="1" source="yOba8j6tgRHBuVcscgmp-36" target="yOba8j6tgRHBuVcscgmp-41">
          <mxGeometry relative="1" as="geometry" />
        </mxCell>
        <mxCell id="yOba8j6tgRHBuVcscgmp-65" style="edgeStyle=orthogonalEdgeStyle;rounded=0;orthogonalLoop=1;jettySize=auto;html=1;entryX=0.5;entryY=0;entryDx=0;entryDy=0;startArrow=none;startFill=0;" edge="1" parent="1" source="yOba8j6tgRHBuVcscgmp-36" target="yOba8j6tgRHBuVcscgmp-52">
          <mxGeometry relative="1" as="geometry" />
        </mxCell>
        <mxCell id="yOba8j6tgRHBuVcscgmp-66" style="edgeStyle=orthogonalEdgeStyle;rounded=0;orthogonalLoop=1;jettySize=auto;html=1;entryX=0.5;entryY=0;entryDx=0;entryDy=0;startArrow=none;startFill=0;" edge="1" parent="1" source="yOba8j6tgRHBuVcscgmp-36" target="yOba8j6tgRHBuVcscgmp-45">
          <mxGeometry relative="1" as="geometry" />
        </mxCell>
        <mxCell id="yOba8j6tgRHBuVcscgmp-67" style="edgeStyle=orthogonalEdgeStyle;rounded=0;orthogonalLoop=1;jettySize=auto;html=1;entryX=0.5;entryY=0;entryDx=0;entryDy=0;startArrow=none;startFill=0;" edge="1" parent="1" source="yOba8j6tgRHBuVcscgmp-36" target="yOba8j6tgRHBuVcscgmp-44">
          <mxGeometry relative="1" as="geometry" />
        </mxCell>
        <mxCell id="yOba8j6tgRHBuVcscgmp-68" style="edgeStyle=orthogonalEdgeStyle;rounded=0;orthogonalLoop=1;jettySize=auto;html=1;entryX=0.5;entryY=0;entryDx=0;entryDy=0;startArrow=none;startFill=0;" edge="1" parent="1" source="yOba8j6tgRHBuVcscgmp-36" target="yOba8j6tgRHBuVcscgmp-53">
          <mxGeometry relative="1" as="geometry" />
        </mxCell>
        <mxCell id="yOba8j6tgRHBuVcscgmp-69" style="edgeStyle=orthogonalEdgeStyle;rounded=0;orthogonalLoop=1;jettySize=auto;html=1;entryX=0.5;entryY=0;entryDx=0;entryDy=0;startArrow=none;startFill=0;" edge="1" parent="1" source="yOba8j6tgRHBuVcscgmp-36" target="yOba8j6tgRHBuVcscgmp-43">
          <mxGeometry relative="1" as="geometry" />
        </mxCell>
        <mxCell id="yOba8j6tgRHBuVcscgmp-36" value="PLC" style="html=1;rounded=1;shadow=1;fillColor=#f8cecc;strokeColor=#b85450;" vertex="1" parent="1">
          <mxGeometry x="380" y="-800" width="110" height="50" as="geometry" />
        </mxCell>
        <mxCell id="yOba8j6tgRHBuVcscgmp-58" style="edgeStyle=orthogonalEdgeStyle;rounded=0;orthogonalLoop=1;jettySize=auto;html=1;entryX=0;entryY=0.5;entryDx=0;entryDy=0;startArrow=classic;startFill=1;" edge="1" parent="1" source="yOba8j6tgRHBuVcscgmp-37" target="yOba8j6tgRHBuVcscgmp-41">
          <mxGeometry relative="1" as="geometry" />
        </mxCell>
        <mxCell id="yOba8j6tgRHBuVcscgmp-37" value="工控机" style="html=1;rounded=1;shadow=1;fillColor=#dae8fc;strokeColor=#6c8ebf;" vertex="1" parent="1">
          <mxGeometry x="280" y="-920" width="110" height="50" as="geometry" />
        </mxCell>
        <mxCell id="yOba8j6tgRHBuVcscgmp-62" style="edgeStyle=orthogonalEdgeStyle;rounded=0;orthogonalLoop=1;jettySize=auto;html=1;entryX=0.5;entryY=0;entryDx=0;entryDy=0;startArrow=none;startFill=0;" edge="1" parent="1" source="yOba8j6tgRHBuVcscgmp-38" target="yOba8j6tgRHBuVcscgmp-37">
          <mxGeometry relative="1" as="geometry">
            <Array as="points">
              <mxPoint x="175" y="-960" />
              <mxPoint x="335" y="-960" />
            </Array>
          </mxGeometry>
        </mxCell>
        <mxCell id="yOba8j6tgRHBuVcscgmp-38" value="3D相机" style="html=1;rounded=1;shadow=1;fillColor=#fff2cc;strokeColor=#d6b656;" vertex="1" parent="1">
          <mxGeometry x="120" y="-1050" width="110" height="50" as="geometry" />
        </mxCell>
        <mxCell id="yOba8j6tgRHBuVcscgmp-63" style="edgeStyle=orthogonalEdgeStyle;rounded=0;orthogonalLoop=1;jettySize=auto;html=1;startArrow=none;startFill=0;" edge="1" parent="1" source="yOba8j6tgRHBuVcscgmp-39">
          <mxGeometry relative="1" as="geometry">
            <mxPoint x="335" y="-920" as="targetPoint" />
          </mxGeometry>
        </mxCell>
        <mxCell id="yOba8j6tgRHBuVcscgmp-39" value="红外相机" style="html=1;rounded=1;shadow=1;fillColor=#fff2cc;strokeColor=#d6b656;" vertex="1" parent="1">
          <mxGeometry x="280" y="-1050" width="110" height="50" as="geometry" />
        </mxCell>
        <mxCell id="yOba8j6tgRHBuVcscgmp-64" style="edgeStyle=orthogonalEdgeStyle;rounded=0;orthogonalLoop=1;jettySize=auto;html=1;startArrow=none;startFill=0;" edge="1" parent="1" source="yOba8j6tgRHBuVcscgmp-40" target="yOba8j6tgRHBuVcscgmp-37">
          <mxGeometry relative="1" as="geometry">
            <Array as="points">
              <mxPoint x="495" y="-960" />
              <mxPoint x="335" y="-960" />
            </Array>
          </mxGeometry>
        </mxCell>
        <mxCell id="yOba8j6tgRHBuVcscgmp-40" value="RGB相机" style="html=1;rounded=1;shadow=1;fillColor=#fff2cc;strokeColor=#d6b656;" vertex="1" parent="1">
          <mxGeometry x="440" y="-1050" width="110" height="50" as="geometry" />
        </mxCell>
        <mxCell id="yOba8j6tgRHBuVcscgmp-41" value="交换机" style="html=1;rounded=1;shadow=1;fillColor=#d5e8d4;strokeColor=#82b366;" vertex="1" parent="1">
          <mxGeometry x="480" y="-920" width="110" height="50" as="geometry" />
        </mxCell>
        <mxCell id="yOba8j6tgRHBuVcscgmp-61" style="edgeStyle=orthogonalEdgeStyle;rounded=0;orthogonalLoop=1;jettySize=auto;html=1;entryX=0;entryY=0.5;entryDx=0;entryDy=0;startArrow=none;startFill=0;" edge="1" parent="1" source="yOba8j6tgRHBuVcscgmp-42" target="yOba8j6tgRHBuVcscgmp-37">
          <mxGeometry relative="1" as="geometry" />
        </mxCell>
        <mxCell id="yOba8j6tgRHBuVcscgmp-42" value="测距传感器" style="html=1;rounded=1;shadow=1;fillColor=#fff2cc;strokeColor=#d6b656;" vertex="1" parent="1">
          <mxGeometry x="120" y="-920" width="110" height="50" as="geometry" />
        </mxCell>
        <mxCell id="yOba8j6tgRHBuVcscgmp-74" style="edgeStyle=orthogonalEdgeStyle;rounded=0;orthogonalLoop=1;jettySize=auto;html=1;entryX=0.5;entryY=0;entryDx=0;entryDy=0;startArrow=none;startFill=0;" edge="1" parent="1" source="yOba8j6tgRHBuVcscgmp-43" target="yOba8j6tgRHBuVcscgmp-51">
          <mxGeometry relative="1" as="geometry" />
        </mxCell>
        <mxCell id="yOba8j6tgRHBuVcscgmp-43" value="驱动器" style="html=1;rounded=1;shadow=1;fillColor=#e1d5e7;strokeColor=#9673a6;" vertex="1" parent="1">
          <mxGeometry x="660" y="-690" width="110" height="50" as="geometry" />
        </mxCell>
        <mxCell id="yOba8j6tgRHBuVcscgmp-71" style="edgeStyle=orthogonalEdgeStyle;rounded=0;orthogonalLoop=1;jettySize=auto;html=1;entryX=0.5;entryY=0;entryDx=0;entryDy=0;startArrow=none;startFill=0;" edge="1" parent="1" source="yOba8j6tgRHBuVcscgmp-44" target="yOba8j6tgRHBuVcscgmp-47">
          <mxGeometry relative="1" as="geometry" />
        </mxCell>
        <mxCell id="yOba8j6tgRHBuVcscgmp-44" value="驱动器" style="html=1;rounded=1;shadow=1;fillColor=#e1d5e7;strokeColor=#9673a6;" vertex="1" parent="1">
          <mxGeometry x="240" y="-690" width="110" height="50" as="geometry" />
        </mxCell>
        <mxCell id="yOba8j6tgRHBuVcscgmp-70" style="edgeStyle=orthogonalEdgeStyle;rounded=0;orthogonalLoop=1;jettySize=auto;html=1;entryX=0.5;entryY=0;entryDx=0;entryDy=0;startArrow=none;startFill=0;" edge="1" parent="1" source="yOba8j6tgRHBuVcscgmp-45" target="yOba8j6tgRHBuVcscgmp-46">
          <mxGeometry relative="1" as="geometry" />
        </mxCell>
        <mxCell id="yOba8j6tgRHBuVcscgmp-45" value="驱动器" style="html=1;rounded=1;shadow=1;fillColor=#e1d5e7;strokeColor=#9673a6;" vertex="1" parent="1">
          <mxGeometry x="100" y="-690" width="110" height="50" as="geometry" />
        </mxCell>
        <mxCell id="yOba8j6tgRHBuVcscgmp-46" value="一臂电机" style="html=1;rounded=1;shadow=1;fillColor=#99FF99;strokeColor=#B09500;fontColor=#000000;" vertex="1" parent="1">
          <mxGeometry x="100" y="-600" width="110" height="50" as="geometry" />
        </mxCell>
        <mxCell id="yOba8j6tgRHBuVcscgmp-47" value="二臂电机" style="html=1;rounded=1;shadow=1;fillColor=#99FF99;strokeColor=#B09500;fontColor=#000000;" vertex="1" parent="1">
          <mxGeometry x="240" y="-600" width="110" height="50" as="geometry" />
        </mxCell>
        <mxCell id="yOba8j6tgRHBuVcscgmp-48" value="抛料电机" style="html=1;rounded=1;shadow=1;fillColor=#99FF99;strokeColor=#B09500;fontColor=#000000;" vertex="1" parent="1">
          <mxGeometry x="380" y="-600" width="110" height="50" as="geometry" />
        </mxCell>
        <mxCell id="yOba8j6tgRHBuVcscgmp-49" value="输送带电机" style="html=1;rounded=1;shadow=1;fillColor=#99FF99;strokeColor=#B09500;fontColor=#000000;" vertex="1" parent="1">
          <mxGeometry x="520" y="-600" width="110" height="50" as="geometry" />
        </mxCell>
        <mxCell id="yOba8j6tgRHBuVcscgmp-59" style="edgeStyle=orthogonalEdgeStyle;rounded=0;orthogonalLoop=1;jettySize=auto;html=1;entryX=1;entryY=0.5;entryDx=0;entryDy=0;startArrow=classic;startFill=1;" edge="1" parent="1" source="yOba8j6tgRHBuVcscgmp-50" target="yOba8j6tgRHBuVcscgmp-41">
          <mxGeometry relative="1" as="geometry" />
        </mxCell>
        <mxCell id="yOba8j6tgRHBuVcscgmp-50" value="WiFi 5G" style="html=1;shadow=1;rounded=1;glass=0;sketch=0;fillColor=#d5e8d4;strokeColor=#82b366;" vertex="1" parent="1">
          <mxGeometry x="680" y="-920" width="110" height="50" as="geometry" />
        </mxCell>
        <mxCell id="yOba8j6tgRHBuVcscgmp-51" value="抛料皮带电机" style="html=1;rounded=1;shadow=1;fillColor=#99FF99;strokeColor=#B09500;fontColor=#000000;" vertex="1" parent="1">
          <mxGeometry x="660" y="-600" width="110" height="50" as="geometry" />
        </mxCell>
        <mxCell id="yOba8j6tgRHBuVcscgmp-72" style="edgeStyle=orthogonalEdgeStyle;rounded=0;orthogonalLoop=1;jettySize=auto;html=1;entryX=0.5;entryY=0;entryDx=0;entryDy=0;startArrow=none;startFill=0;" edge="1" parent="1" source="yOba8j6tgRHBuVcscgmp-52" target="yOba8j6tgRHBuVcscgmp-48">
          <mxGeometry relative="1" as="geometry" />
        </mxCell>
        <mxCell id="yOba8j6tgRHBuVcscgmp-52" value="驱动器" style="html=1;rounded=1;shadow=1;fillColor=#e1d5e7;strokeColor=#9673a6;" vertex="1" parent="1">
          <mxGeometry x="380" y="-690" width="110" height="50" as="geometry" />
        </mxCell>
        <mxCell id="yOba8j6tgRHBuVcscgmp-73" style="edgeStyle=orthogonalEdgeStyle;rounded=0;orthogonalLoop=1;jettySize=auto;html=1;entryX=0.5;entryY=0;entryDx=0;entryDy=0;startArrow=none;startFill=0;" edge="1" parent="1" source="yOba8j6tgRHBuVcscgmp-53" target="yOba8j6tgRHBuVcscgmp-49">
          <mxGeometry relative="1" as="geometry" />
        </mxCell>
        <mxCell id="yOba8j6tgRHBuVcscgmp-53" value="驱动器" style="html=1;rounded=1;shadow=1;fillColor=#e1d5e7;strokeColor=#9673a6;" vertex="1" parent="1">
          <mxGeometry x="520" y="-690" width="110" height="50" as="geometry" />
        </mxCell>
        <mxCell id="yOba8j6tgRHBuVcscgmp-54" value="Cloud" style="ellipse;shape=cloud;whiteSpace=wrap;html=1;align=center;rounded=1;shadow=1;glass=0;sketch=0;fillColor=#dae8fc;strokeColor=#6c8ebf;" vertex="1" parent="1">
          <mxGeometry x="710" y="-1075" width="100" height="60" as="geometry" />
        </mxCell>
        <mxCell id="yOba8j6tgRHBuVcscgmp-55" value="" style="shape=image;html=1;verticalAlign=top;verticalLabelPosition=bottom;labelBackgroundColor=#59FF91;imageAspect=0;aspect=fixed;image=https://cdn2.iconfinder.com/data/icons/bitsies/128/Lightning-128.png;rounded=1;shadow=1;glass=0;sketch=0;direction=east;strokeWidth=0;" vertex="1" parent="1">
          <mxGeometry x="730" y="-1000" width="60" height="60" as="geometry" />
        </mxCell>
        <mxCell id="yOba8j6tgRHBuVcscgmp-75" value="自动上甑机结构框图" style="text;html=1;align=center;verticalAlign=middle;resizable=0;points=[];autosize=1;strokeColor=none;fillColor=none;fontSize=23;fontStyle=1" vertex="1" parent="1">
          <mxGeometry x="300" y="-1120" width="220" height="30" as="geometry" />
        </mxCell>
      </root>
    </mxGraphModel>
  </diagram>
</mxfile>
